<?xml version="1.0" encoding="UTF-8"?><svg id="Layer_2" xmlns="http://www.w3.org/2000/svg" width="101.56" height="103.27" viewBox="0 0 101.56 103.27"><defs><style>.cls-1{fill:#f18550;}.cls-2{fill:#fed385;}.cls-3{fill:#fdf5b2;}</style></defs><g id="Laag_5"><g><g><path class="cls-1" d="M54.02,102.19c-.46-.87-.83-1.64-1.17-2.39-1.41-3.1-2.46-6.25-3.12-9.36-.64-3.03-1-5.52-1.13-7.83-.12-1.99-.06-3.48,.17-4.83,.13-.76,.32-1.62,.75-2.28,.19-.3,.51-.46,1.17-.58,.2-.04,.41-.06,.6-.06,1.32,0,2.55,.87,3.76,2.67,1.14,1.69,2.01,3.55,2.8,5.31,.59,1.31,1.32,2.65,2.65,3.58,1.38,.96,3.09,1.54,4.58,1.54,.45,0,.88-.05,1.28-.15,1.66-.41,2.87-1.42,4.04-2.4,.32-.27,.64-.53,.96-.79,.55-.42,1.29-.72,2.01-1.01l.46-.18c.71-.29,1.44-.63,2.02-1.28,1.16-1.31,1.3-3.2,1.35-4.86,.05-2.02-.15-4.16-.65-6.95-.72-3.98-2.01-7.82-3.26-11.54l-.73-2.2c-1.48-4.46-3.01-9.06-4.56-13.58l-.39-1.15c-.57-1.66-1.15-3.38-1.83-5.04-.18-.44-.37-.88-.56-1.32-.82-1.88-1.67-3.83-1.59-5.79,.05-1.35,.63-2.6,1.19-3.64,.56-1.05,1.22-2.1,2-3.2,1.08-1.52,2.29-2.98,3.6-4.36,.19-.2,.39-.41,.59-.6,.26-.25,.4-.61,.38-.97-.02-.35-.18-.68-.44-.89-.49-.4-1.15-.59-2.01-.59-.22,0-.44,.01-.64,.03-1.35,.09-2.64,.39-3.72,.68-3.31,.88-6.84,2.28-10.8,4.28-4.57,2.31-8.92,5.08-12.92,8.25-4.72,3.73-8.77,7.9-12.05,12.39-3.8,5.21-6.52,10.84-8.09,16.75-1.79,6.78-2.07,13.95-.79,20.76,1.07,5.71,3.15,11.42,6.21,17C10.31,86.36,.55,69.04,.99,50.53,1.63,23.67,24.43,.97,50.79,.97c13.45,0,25.96,4.99,35.22,14.05,9.4,9.19,14.58,21.8,14.58,35.49,0,27.36-20.4,49.94-46.56,51.68Z"/><path class="cls-1" d="M50.79,1.94c13.19,0,25.46,4.89,34.54,13.77,9.21,9.01,14.29,21.37,14.29,34.79,0,26.63-19.68,48.64-45.02,50.67-.32-.63-.6-1.21-.86-1.77-1.38-3.04-2.41-6.12-3.05-9.16-.63-2.99-.98-5.43-1.11-7.69-.11-1.91-.06-3.33,.16-4.61,.11-.62,.27-1.4,.6-1.91,.01,0,.11-.08,.54-.16,.14-.03,.29-.04,.42-.04,.96,0,1.96,.75,2.96,2.24,1.1,1.63,1.94,3.45,2.72,5.17,.65,1.44,1.45,2.92,2.98,3.98,1.56,1.09,3.43,1.72,5.13,1.72,.53,0,1.03-.06,1.51-.18,1.88-.46,3.24-1.6,4.43-2.6,.31-.26,.62-.52,.93-.76,.44-.34,1.09-.6,1.77-.87,.16-.06,.31-.13,.47-.19,.77-.32,1.66-.73,2.38-1.54,1.49-1.68,1.56-4.15,1.59-5.48,.06-2.09-.15-4.3-.66-7.15-.73-4.05-2.04-7.93-3.3-11.69-.21-.63-.42-1.26-.63-1.89l-.04-.12c-1.5-4.52-3.05-9.18-4.63-13.76l-.39-1.15c-.57-1.68-1.16-3.41-1.85-5.1-.18-.44-.38-.89-.57-1.34-.81-1.87-1.58-3.63-1.51-5.37,.04-1.15,.54-2.23,1.08-3.22,.54-1.02,1.18-2.03,1.94-3.1,1.05-1.48,2.23-2.91,3.51-4.25,.19-.19,.37-.39,.57-.58,.46-.44,.7-1.07,.68-1.71-.03-.63-.32-1.22-.81-1.61-.67-.54-1.53-.81-2.62-.81-.24,0-.48,.01-.7,.03-1.43,.09-2.78,.41-3.91,.71-3.37,.9-6.97,2.32-10.99,4.35-4.63,2.34-9.03,5.15-13.09,8.35-4.79,3.79-8.9,8.02-12.23,12.58-3.87,5.31-6.65,11.05-8.24,17.07-1.83,6.91-2.11,14.24-.81,21.18,.89,4.73,2.45,9.45,4.68,14.1C9.88,83.46,1.55,67.52,1.96,50.56c.29-12.31,5.6-24.63,14.55-33.81C25.82,7.2,37.99,1.94,50.79,1.94m0-1.94C22.75,0,.64,24.2,.02,50.51c-.5,20.94,11.47,39.04,28.65,47.56-3.7-6.03-6.51-12.69-7.82-19.66-1.26-6.73-.97-13.71,.78-20.33,1.57-5.92,4.33-11.48,7.93-16.42,3.36-4.6,7.4-8.67,11.87-12.2,3.96-3.13,8.25-5.87,12.76-8.14,3.39-1.71,6.94-3.23,10.62-4.21,1.15-.31,2.34-.58,3.54-.65,.18-.01,.38-.02,.58-.02,.5,0,1.02,.07,1.4,.38,.12,.1,.1,.31,0,.41-.21,.21-.42,.42-.62,.63-1.33,1.4-2.57,2.89-3.69,4.46-.75,1.06-1.45,2.16-2.07,3.31-.68,1.28-1.25,2.59-1.3,4.06-.1,2.67,1.24,5.12,2.23,7.52,.82,2.01,1.5,4.09,2.21,6.14,1.59,4.61,3.12,9.24,4.66,13.87,1.46,4.39,3.04,8.74,3.86,13.31,.4,2.22,.69,4.49,.63,6.75-.04,1.38-.13,3.15-1.1,4.25-.45,.5-1.05,.78-1.66,1.03-.91,.37-1.9,.72-2.69,1.32-1.47,1.13-2.78,2.55-4.65,3.01-.34,.08-.69,.12-1.05,.12-1.41,0-2.91-.59-4.02-1.36-1.13-.79-1.77-1.95-2.32-3.19-.85-1.89-1.72-3.73-2.88-5.46-1.09-1.62-2.59-3.09-4.57-3.09-.25,0-.51,.02-.78,.07-.75,.14-1.39,.38-1.8,1.01-.51,.78-.73,1.74-.89,2.64-.29,1.66-.28,3.38-.18,5.06,.16,2.68,.6,5.34,1.15,7.97,.7,3.29,1.8,6.5,3.19,9.56,.46,1.01,.96,2.01,1.49,2.99,26.8-1.44,48.1-24.48,48.1-52.69S78.83,0,50.79,0h0Z"/></g><path class="cls-3" d="M47,80.06c.04-1.32,.17-2.68,.56-3.95,.21-.69,.51-1.43,1.04-1.94,.7-.68,1.92-.89,2.84-.86,2.29,.07,3.83,1.75,5.01,3.53,1.15,1.74,2,3.6,2.86,5.49,.58,1.28,1.27,2.4,2.53,3.11,.83,.46,1.85,.85,2.79,.96,1.08,.12,2.12-.29,3.03-.85,.82-.51,1.55-1.16,2.28-1.78,.71-.6,1.46-.99,2.31-1.37,.71-.31,1.52-.53,2.13-1.01,.51-.41,.76-1,.93-1.62,.51-1.9,.35-4,.15-5.93-.26-2.58-.78-5.13-1.46-7.63-.58-2.14-1.33-4.24-2.03-6.34-.75-2.25-1.5-4.51-2.25-6.76-1.49-4.48-2.98-8.95-4.57-13.4-.85-2.38-2.05-4.65-2.73-7.08-.33-1.18-.49-2.42-.34-3.64,.17-1.31,.7-2.5,1.32-3.66,1.6-2.99,3.75-5.82,6.18-8.22-.09-.02-.18-.05-.28-.06-.77-.11-1.82,.06-2.66,.22-1.41,.27-2.8,.68-4.16,1.14-3.91,1.32-7.66,3.09-11.24,5.13-4.5,2.55-8.76,5.56-12.62,9.01-4.25,3.8-8.03,8.14-11.01,13.01-3.21,5.24-5.42,11.05-6.41,17.12-1.12,6.9-.59,13.91,1.38,20.61,1.58,5.37,3.99,10.49,6.98,15.22,2.9,1.37,5.94,2.46,9.09,3.25-2.79-4.85-4.94-10.06-6.2-15.51-1.35-5.8-1.76-11.81-1.28-17.74,.44-5.48,1.63-10.9,3.49-16.07,1.66-4.6,3.84-9.03,6.61-13.07,2.24-3.27,4.87-6.34,8.05-8.74,.3-.23,.59,.28,.29,.5-.35,.26-.69,.53-1.02,.81-3.11,2.61-5.68,5.85-7.84,9.26-2.64,4.18-4.71,8.71-6.23,13.42-1.68,5.22-2.68,10.66-2.92,16.14-.26,5.96,.4,11.96,2.01,17.71,1.32,4.73,3.29,9.24,5.77,13.46,3.66,.86,7.46,1.33,11.35,1.33,.67,0,1.34-.03,2.01-.05-2.07-3.91-3.66-8.11-4.58-12.42-.3-1.44-.57-2.88-.78-4.33-.3-2.12-.51-4.26-.44-6.41Zm22.34-4.64c.62-.12,1.26,0,1.78,.35,.67,.45,1.09,1.15,1.36,1.89,.13,.35-.43,.5-.56,.16-.24-.65-.63-1.29-1.25-1.64-.39-.22-.86-.29-1.3-.18-.23,.06-.43,.16-.63,.29-.18,.13-.39,.32-.48,.47-.19,.3-.24,.68-.1,1.02,.19,.47,.72,.66,1.2,.7,.37,.03,.37,.61,0,.58-.77-.06-1.54-.4-1.79-1.19-.38-1.17,.66-2.24,1.75-2.46Z"/><path class="cls-1" d="M48.78,90.64c.04,.18-.08,.3-.21,.35,.85,3.87,2.4,8.1,4.58,12.22,.1,0,.21,0,.31-.01-.52-.98-1.03-1.98-1.49-2.99-1.39-3.06-2.48-6.27-3.19-9.56Z"/><path class="cls-1" d="M69.9,17.22h0s0,0,0,0c.03,.02,.04,.03,0,0Z"/><path class="cls-1" d="M20.35,69.74c.42-38.16,44.59-54.74,49.47-52.86,.03-.02,.05-.05,.07-.08v.11c.07,.03,.16,.05,.21,.09,0,0-.07,.07-.21,.2h0s.03,.02,0,0c-.91,.92-4.65,4.83-6.78,9.39-2.05,4.37,.43,7.72,1.95,11.93,2.39,6.58,6.23,18.36,8.42,24.88,2.27,6.78,3.48,15.88,1.33,18-.79,.78-1.54,.75-3.71,1.88-1.28,.66-3.89,4.13-7.04,3.3-5.71-1.52-3.91-4.08-8.4-10.39-2.47-3.47-5.39-2.66-6.52-2.07-1.22,.64-3.09,4.78-.69,16.32,.14-.04,.3,.02,.34,.2-.55-2.63-.99-5.29-1.15-7.97-.1-1.68-.1-3.39,.18-5.06,.16-.9,.38-1.86,.89-2.64,.41-.63,1.05-.86,1.8-1.01,2.37-.45,4.12,1.19,5.35,3.02,1.16,1.72,2.03,3.57,2.88,5.46,.55,1.23,1.19,2.39,2.32,3.19,1.39,.97,3.4,1.65,5.07,1.24,1.87-.46,3.18-1.88,4.65-3.01,.78-.6,1.78-.94,2.69-1.32,.61-.25,1.22-.52,1.66-1.03,.97-1.09,1.07-2.86,1.1-4.25,.06-2.26-.23-4.53-.63-6.75-.82-4.57-2.41-8.92-3.86-13.31-1.54-4.63-3.07-9.26-4.66-13.86-.71-2.05-1.38-4.13-2.21-6.14-.98-2.4-2.33-4.85-2.23-7.52,.06-1.47,.62-2.79,1.3-4.06,.61-1.15,1.31-2.25,2.07-3.31,1.12-1.57,2.35-3.07,3.69-4.46,.2-.21,.41-.43,.62-.63,.1-.1,.12-.31,0-.41-.53-.43-1.34-.4-1.98-.35-1.2,.08-2.38,.35-3.54,.65-3.68,.98-7.22,2.5-10.62,4.21-4.51,2.28-8.79,5.01-12.76,8.14-4.46,3.53-8.51,7.6-11.87,12.2-3.61,4.94-6.37,10.5-7.93,16.42-1.75,6.62-2.04,13.6-.78,20.33,1.31,6.97,4.11,13.63,7.82,19.66,.16,.08,.32,.15,.48,.22-5.58-8.97-8.9-18.99-8.79-28.55Z"/><path class="cls-1" d="M69.9,16.8s-.05,.05-.07,.08c.03,.01,.05,.02,.07,.03v-.11Z"/><path class="cls-1" d="M48.45,90.45c.02,.09,.03,.18,.05,.27,.02,.09,.05,.18,.07,.27,.14-.04,.25-.17,.21-.35-.04-.18-.2-.23-.34-.2Z"/><path class="cls-1" d="M70.11,17.01s-.14-.06-.21-.09v.3c.13-.13,.21-.2,.21-.2Z"/><path class="cls-1" d="M48.45,90.45c-.14,.04-.27,.17-.23,.35,.04,.19,.2,.24,.35,.19-.02-.09-.05-.18-.07-.27-.02-.1-.03-.18-.05-.27Z"/><path class="cls-1" d="M22.62,83.28c-1.97-6.7-2.5-13.7-1.38-20.61,.99-6.07,3.2-11.88,6.41-17.12,2.98-4.87,6.76-9.21,11.01-13.01,3.86-3.45,8.12-6.46,12.62-9.01,3.58-2.03,7.33-3.81,11.24-5.13,1.36-.46,2.75-.87,4.16-1.14,.84-.16,1.89-.33,2.66-.22,.09,.01,.19,.04,.28,.06,.07-.07,.14-.15,.21-.22-4.88-1.88-49.05,14.69-49.47,52.86-.11,9.56,3.21,19.59,8.79,28.55,.15,.07,.31,.14,.46,.21-2.99-4.74-5.4-9.85-6.98-15.22Z"/><path class="cls-1" d="M69.71,17.13s-.07-.01-.1-.02c-2.42,2.4-4.58,5.23-6.18,8.22-.62,1.16-1.16,2.35-1.32,3.66-.16,1.23,0,2.46,.34,3.64,.69,2.43,1.89,4.7,2.73,7.08,1.58,4.44,3.08,8.92,4.57,13.4,.75,2.25,1.5,4.51,2.25,6.76,.7,2.11,1.45,4.2,2.03,6.34,.68,2.5,1.2,5.06,1.46,7.63,.2,1.93,.36,4.03-.15,5.93-.17,.62-.42,1.21-.93,1.62-.61,.49-1.42,.71-2.13,1.01-.85,.37-1.6,.77-2.31,1.37-.74,.62-1.46,1.27-2.28,1.78-.9,.56-1.95,.97-3.03,.85-.94-.11-1.96-.5-2.79-.96-1.26-.7-1.95-1.83-2.53-3.11-.86-1.89-1.71-3.75-2.86-5.49-1.19-1.78-2.72-3.46-5.01-3.53-.93-.03-2.15,.18-2.84,.86-.53,.51-.83,1.26-1.04,1.94-.39,1.27-.52,2.62-.56,3.95-.06,2.14,.14,4.29,.44,6.41,.21,1.45,.47,2.89,.78,4.33-.04-.19,.08-.32,.23-.35-2.4-11.53-.53-15.68,.69-16.32,1.13-.59,4.05-1.4,6.52,2.07,4.49,6.3,2.69,8.87,8.4,10.39,3.15,.84,5.76-2.64,7.04-3.3,2.18-1.13,2.92-1.1,3.71-1.88,2.15-2.11,.94-11.22-1.33-18-2.18-6.52-6.03-18.3-8.42-24.88-1.53-4.21-4-7.56-1.95-11.93,2.14-4.56,5.87-8.47,6.78-9.39-.03-.02-.06-.04-.08-.05-.09-.01-.01-.01-.11-.04Z"/><path class="cls-1" d="M48.22,90.8c.92,4.31,2.5,8.51,4.58,12.42,.12,0,.23,0,.35,0-2.18-4.12-3.73-8.35-4.58-12.22-.14,.04-.31,0-.35-.19Z"/><path class="cls-1" d="M69.71,17.13c.1,.03,.01,.03,.11,.04,.01,0,.05,.03,.08,.05,0,0,0,0,0,0v-.3s-.05-.02-.07-.03c-.07,.07-.14,.15-.21,.22,.03,0,.07,.01,.1,.02Z"/><path class="cls-2" d="M33.67,88.48c-1.61-5.75-2.27-11.74-2.01-17.71,.23-5.48,1.24-10.92,2.92-16.14,1.51-4.7,3.58-9.24,6.23-13.42,2.16-3.42,4.73-6.66,7.84-9.26,.33-.28,.67-.55,1.02-.81,.3-.22,0-.73-.29-.5-3.18,2.39-5.81,5.47-8.05,8.74-2.77,4.04-4.95,8.47-6.61,13.07-1.86,5.17-3.05,10.59-3.49,16.07-.48,5.93-.07,11.94,1.28,17.74,1.27,5.45,3.41,10.67,6.2,15.51,.24,.06,.49,.12,.74,.18-2.48-4.22-4.44-8.73-5.77-13.46Z"/><path class="cls-2" d="M69.37,79.07c.37,.03,.37-.55,0-.58-.48-.04-1.01-.23-1.2-.7-.14-.34-.09-.73,.1-1.02,.09-.15,.3-.34,.48-.47,.19-.13,.4-.23,.63-.29,.44-.11,.9-.05,1.3,.18,.62,.35,1.01,.99,1.25,1.64,.13,.35,.69,.2,.56-.16-.27-.74-.69-1.44-1.36-1.89-.52-.35-1.16-.48-1.78-.35-1.09,.22-2.13,1.29-1.75,2.46,.25,.79,1.02,1.13,1.79,1.19Z"/></g></g></svg>