<?xml version="1.0" encoding="UTF-8"?><svg id="Layer_2" xmlns="http://www.w3.org/2000/svg" width="101.56" height="103.8" viewBox="0 0 101.56 103.8"><defs><style>.cls-1{fill:#f18550;}.cls-2{fill:#fed385;}.cls-3{fill:#fdf5b2;}</style></defs><g id="Layer_18"><g><path class="cls-1" d="M50.79,102.3c-13.32,0-25.88-5.35-35.37-15.07C5.78,77.37,.66,64.33,.99,50.53,1.63,23.67,24.43,.97,50.79,.97c13.45,0,25.96,4.99,35.22,14.05,9.4,9.19,14.58,21.8,14.58,35.49,0,28.56-22.34,51.79-49.8,51.79Z"/><path class="cls-1" d="M50.79,1.94c13.19,0,25.46,4.89,34.54,13.77,9.21,9.01,14.29,21.37,14.29,34.79,0,28.02-21.9,50.82-48.83,50.82-13.06,0-25.37-5.25-34.67-14.77C6.66,76.88,1.63,64.09,1.96,50.56c.29-12.31,5.6-24.63,14.55-33.81C25.82,7.2,37.99,1.94,50.79,1.94m0-1.94C22.75,0,.64,24.2,.02,50.51c-.69,29.13,22.73,52.76,50.77,52.76s50.77-23.62,50.77-52.76S78.83,0,50.79,0h0Z"/></g></g><g id="Laag_4"><g><path class="cls-3" d="M39.35,101.23c8.76-15.37,6.65-25.41-3.85-29.08-5.42-1.89-1.53-8.8-3.27-15.13-1.2-4.39-6.85-8.87-7.62-10.66-.75-1.73,6.22-1.01,10.26-7.27,3.92-6.06,.98-9.34,4.84-16.46,3.31-6.11,29.28-9.25,33.4,26.91,4.99,43.81-24.62,32.45-21.41,53.14l-.7-.04c-3.49-.2-6.97-.59-10.42-1.19l-1.24-.21Z"/><path class="cls-1" d="M39.77,101.47c2.71-4.77,5.13-10.08,5.5-15.63,.25-3.83-.75-7.68-3.5-10.46-1.37-1.39-3.06-2.44-4.86-3.2-.94-.4-1.99-.63-2.75-1.36-.66-.63-.97-1.49-1.11-2.38-.17-1.08-.11-2.2-.04-3.28,.07-1.25,.17-2.5,.19-3.76,.01-1.32-.07-2.65-.36-3.95-.27-1.21-.77-2.34-1.42-3.39-1.31-2.14-3.05-3.97-4.73-5.82-.54-.6-1.15-1.21-1.55-1.92-.03-.06-.06-.11-.09-.17,0,0,0,.04-.02-.06-.02-.08,0,.12,0,0,0,0-.06,.06,0,0-.05,.05-.05,.04,.01-.01,.06-.05-.07,.08,.01-.01,.02-.02,.12-.1,.02-.03,.04-.03,.09-.06,.13-.09,.49-.29,1.03-.44,1.62-.64,.84-.29,1.68-.6,2.5-.96,2.15-.97,4.04-2.41,5.45-4.31,1.57-2.11,2.48-4.56,2.82-7.15,.31-2.36,.41-4.71,1.17-6.98,.38-1.12,.84-2.29,1.48-3.28,.04-.06,.08-.11,.12-.17,.02-.03,.04-.06,.06-.09-.09,.12,0,0,.03-.03,.1-.12,.21-.24,.32-.35,.12-.12,.24-.23,.37-.34,.06-.05,.13-.1,.19-.16-.1,.08,.11-.08,.16-.11,.31-.22,.64-.42,.98-.6,1.53-.81,3.5-1.27,5.25-1.4,2.35-.17,4.59,.11,6.82,.81,2.6,.82,5.02,2.21,7.09,4,2.63,2.28,4.69,5.15,6.26,8.24,2.14,4.2,3.41,8.8,4.19,13.43,.89,5.27,1.29,10.71,1.01,16.05-.2,3.79-.78,7.59-2.09,11.16-.95,2.61-2.34,5.11-4.09,7.24-1.51,1.83-3.27,3.42-5.14,4.87-1.59,1.24-3.42,2.49-5.05,3.8-1.5,1.2-2.92,2.53-3.96,4.15-1.13,1.76-1.69,3.79-1.79,5.87-.06,1.27,.05,2.55,.24,3.81l.46-.6c-4.11-.23-8.17-.72-12.23-1.42-.6-.1-.86,.82-.25,.92,4.14,.71,8.29,1.22,12.48,1.46,.34,.02,.5-.32,.46-.6-.35-2.31-.36-4.63,.41-6.82,.17-.49,.29-.77,.54-1.25,.21-.41,.45-.81,.72-1.19,.29-.42,.47-.64,.81-1.04,.31-.36,.64-.7,.98-1.03,1.48-1.43,3.02-2.5,4.67-3.72,1.86-1.36,3.69-2.76,5.35-4.37,1.88-1.83,3.5-3.94,4.74-6.25,1.59-2.97,2.57-6.24,3.12-9.55,.78-4.69,.78-9.47,.43-14.2-.41-5.36-1.22-10.74-2.96-15.85-1.29-3.8-3.08-7.44-5.6-10.58-1.93-2.41-4.3-4.48-7.03-5.94-2.28-1.22-4.78-2-7.35-2.27-2.14-.23-4.34-.09-6.42,.48-1.59,.44-3.22,1.15-4.42,2.32-1.02,1-1.56,2.42-2.06,3.72-.89,2.34-1.09,4.77-1.37,7.23s-1.07,4.92-2.56,7.04c-1.37,1.96-3.31,3.38-5.48,4.34-.77,.34-1.56,.61-2.36,.88-.55,.19-1.17,.36-1.66,.69-.42,.28-.7,.7-.56,1.22,.19,.67,.78,1.27,1.22,1.78,1.58,1.83,3.31,3.54,4.7,5.53,.69,1,1.32,2.07,1.68,3.24,.39,1.28,.51,2.62,.52,3.95,.02,2.39-.43,4.81-.19,7.2,.1,.97,.32,1.95,.89,2.76,.62,.89,1.51,1.42,2.52,1.78,3.53,1.26,6.71,3.6,8.06,7.2,1.57,4.18,.68,8.86-.75,12.94-1,2.85-2.34,5.58-3.83,8.2-.3,.54,.52,1.02,.82,.48Z"/></g></g><g id="Laag_14"><path class="cls-2" d="M39.59,31.41c.93,2.21,2.08,4.32,3.45,6.3,1.24,1.79,2.64,3.45,4.15,5.02,1.38,1.43,2.84,2.76,4.34,4.06,1.39,1.2,2.81,2.37,4.19,3.58,1.25,1.09,2.48,2.22,3.59,3.47,.26,.29,.51,.59,.76,.9,.03,.03,.06,.07,.08,.1,.02,.02,.03,.04,.05,.06-.06-.08-.02-.02,0,0,.06,.08,.12,.16,.18,.24,.11,.15,.22,.3,.33,.46,.43,.62,.81,1.27,1.13,1.95,.04,.08,.08,.17,.11,.25,.02,.04,.03,.08,.05,.12,0,.02,.02,.05,.03,.07-.01-.03-.03-.06,0-.01,.07,.18,.14,.35,.21,.54,.13,.36,.24,.72,.33,1.09s.17,.76,.23,1.15c0,.04,.02,.15,0,.05,0,.05,.01,.09,.02,.14,.01,.11,.02,.21,.03,.32,.02,.21,.03,.42,.04,.62,.02,.42,.02,.84,0,1.26-.01,.23-.03,.45-.05,.68-.01,.11-.02,.22-.04,.34,0,.05-.01,.11-.02,.16,0,.02,0,.05,0,.07,.01-.1,0,.05,0,.06-.14,1-.37,1.98-.66,2.94-.74,2.47-1.86,4.81-3.11,7.06-1.74,3.13-3.75,6.09-5.86,8.98-.63,.86-1.27,1.71-1.92,2.55-.16,.2-.03,.53,.17,.65,.25,.14,.5,.03,.65-.17,2.36-3.08,4.63-6.25,6.64-9.57,1.47-2.43,2.81-4.96,3.8-7.62,.72-1.94,1.25-3.97,1.36-6.05,.09-1.64-.11-3.3-.65-4.85s-1.32-2.85-2.28-4.09-2.15-2.45-3.35-3.55c-1.33-1.21-2.71-2.36-4.08-3.53-1.49-1.27-2.97-2.55-4.37-3.91-1.49-1.44-2.96-3.03-4.19-4.64-1.4-1.83-2.63-3.79-3.64-5.87-.26-.53-.51-1.07-.74-1.61-.1-.24-.32-.41-.59-.33-.22,.06-.43,.35-.33,.59h0Z"/></g><g id="Laag_8"><path class="cls-2" d="M34.84,64.42c1.34,.8,2.98,1.24,4.54,1.23,1.78,0,3.52-.7,4.48-2.27,.69-1.13,.89-2.5,.9-3.8,0-.61-.95-.62-.95,0,0,1.04-.14,2.15-.62,3.06-.37,.71-.87,1.21-1.57,1.57-.59,.3-1.33,.45-2.02,.48-.82,.03-1.44-.06-2.22-.27-.39-.1-.77-.23-1.14-.38-.01,0-.14-.06-.04-.02-.05-.02-.1-.04-.15-.07-.09-.04-.17-.08-.25-.12-.16-.08-.31-.16-.46-.25-.53-.32-1.01,.51-.48,.82h0Z"/></g><g id="Laag_6"><path class="cls-2" d="M37.66,42.8c1.43,0,1.43-2.22,0-2.22s-1.43,2.22,0,2.22h0Z"/></g></svg>