<?xml version="1.0" encoding="UTF-8"?><svg id="Layer_2" xmlns="http://www.w3.org/2000/svg" width="96.52" height="94.34" viewBox="0 0 96.52 94.34"><defs><style>.cls-1{fill:#f18550;}.cls-2{fill:#fed385;}.cls-3{fill:#fdf5b2;}</style></defs><g id="Layer_18"><path class="cls-1" d="M87.23,53.22c0,21.63-16.87,39.16-37.68,39.16S11.35,74.84,11.86,53.22c.47-19.53,16.87-37.49,37.68-37.49s37.68,15.86,37.68,37.49Z"/></g><g id="Laag_4"><g><path class="cls-3" d="M24.81,48.93c-1.04,.54-2.63,4.08-.54,13.98,2.47,11.69,12.43,27.47,28.47,28.24,13.26,.64,21.47-10.51,24.17-15.26,4.51-7.92,4.92-17.13-.49-19.02-2.79-.97-.79-4.53-1.68-7.79-.62-2.26-3.53-4.57-3.92-5.49-.38-.89,3.2-.52,5.28-3.74,2.02-3.12,.51-4.81,2.49-8.48,1.7-3.15,15.08-4.76,17.2,13.85,2.57,22.56-22.32,48.57-46.32,48.57h-2.61C22.87,93.8,.3,67.93,.55,45.23,.91,12.39,39.72-1.49,42.48,.79c0,0-3.83,3.69-5.89,8.09-1.72,3.68,.36,6.5,1.65,10.05,2.01,5.55,5.25,15.47,7.09,20.97,1.91,5.71,2.93,13.38,1.12,15.17-.67,.65-1.29,.63-3.13,1.58-1.07,.56-3.28,3.48-5.93,2.78-4.81-1.28-3.29-3.44-7.08-8.75-2.08-2.92-4.54-2.24-5.5-1.75Z"/><path class="cls-1" d="M24.69,48.71c-.45,.24-.73,.73-.93,1.17-.39,.87-.56,1.83-.66,2.77-.16,1.58-.1,3.19,.06,4.77,.21,2.13,.57,4.26,1.06,6.34,1.53,6.47,4.75,12.68,9.15,17.66,4.79,5.43,11.26,9.32,18.57,9.91,3.79,.3,7.58-.35,11.05-1.9,3.09-1.38,5.86-3.41,8.26-5.79,4.45-4.41,8.04-10.14,9.11-16.37,.52-3.04,.57-6.91-1.73-9.29-.46-.48-1.01-.87-1.61-1.14-.74-.34-1.45-.54-1.73-1.39-.26-.78-.17-1.67-.12-2.48,.06-.93,.13-1.87,.03-2.8-.2-1.91-1.29-3.36-2.53-4.76-.5-.56-1.11-1.1-1.51-1.74-.06-.1-.12-.17-.09-.23,.07-.13,.42-.21,.54-.26,1.38-.5,2.72-1,3.79-2.07,1.35-1.34,1.99-3.1,2.18-4.96,.1-.93,.18-1.86,.44-2.76,.21-.72,.49-1.53,.94-2.14,.32-.42,.79-.71,1.25-.94,1.36-.66,2.99-.77,4.47-.57,5.19,.72,8.37,5.38,9.78,10.06,2.15,7.14,1.36,14.71-1.34,21.58-2.83,7.19-7.54,13.6-13.18,18.84s-12.54,9.53-20.03,11.74c-3.42,1.01-6.96,1.57-10.53,1.57-2.99,0-5.93-.04-8.88-.6-7.58-1.42-14.6-5.19-20.48-10.12s-11-11.32-14.47-18.34C2.28,57.88,.42,50.56,.87,43.16c.39-6.44,2.41-12.68,5.75-18.19,3.03-4.98,7.04-9.32,11.57-12.97,3.92-3.16,8.24-5.85,12.81-7.98,1.76-.82,3.56-1.56,5.41-2.16,1.3-.43,2.65-.81,4.01-.99,.42-.05,.85-.09,1.27-.06,.15,.01,.23,.02,.4,.07,.05,.01,.16,.05,.12,.04,.03,0,.16,.1,.1,.05v-.35c-1.55,1.5-2.94,3.23-4.14,5.02-.99,1.48-2.07,3.15-2.38,4.93s.16,3.38,.79,4.97,1.31,3.13,1.88,4.74c.51,1.44,1.01,2.88,1.5,4.33,1.1,3.24,2.18,6.48,3.26,9.73,.98,2.94,2.06,5.86,2.81,8.87,.42,1.71,.76,3.45,.96,5.21,.16,1.43,.26,2.89,.08,4.32-.11,.94-.34,1.97-1.2,2.49-1.02,.63-2.25,.84-3.21,1.6-1.03,.82-1.97,1.79-3.24,2.25s-2.79,.03-3.97-.65c-.83-.48-1.38-1.2-1.81-2.05-.53-1.06-.96-2.17-1.51-3.22-1.27-2.41-3.18-5.47-6.35-4.81-.38,.08-.74,.21-1.09,.39-.28,.14-.03,.57,.25,.42,.89-.46,1.95-.54,2.89-.2,1.7,.61,2.71,2.39,3.56,3.87,.63,1.11,1.11,2.27,1.65,3.42,.39,.84,.86,1.64,1.59,2.22,.88,.7,2.15,1.2,3.26,1.31,1.37,.14,2.62-.59,3.66-1.39,.48-.37,.92-.78,1.39-1.16,.52-.42,1.15-.69,1.77-.95,.88-.37,1.82-.66,2.31-1.55,.51-.93,.6-2.1,.63-3.14,.04-1.56-.12-3.12-.36-4.66-.5-3.26-1.48-6.37-2.51-9.49-2.02-6.09-4-12.21-6.18-18.25-.62-1.71-1.46-3.33-2-5.07-.27-.88-.44-1.79-.4-2.71,.05-1.03,.4-1.98,.86-2.89,1.33-2.64,3.18-5.04,5.23-7.16,.12-.13,.25-.26,.38-.38,.09-.09,.1-.26,0-.35-.57-.46-1.51-.33-2.18-.25-1.37,.17-2.72,.54-4.03,.96-4.1,1.32-8.01,3.25-11.69,5.48-4.73,2.87-9.13,6.35-12.88,10.42-4.1,4.45-7.4,9.64-9.39,15.37C.22,39.11-.29,46.19,1.05,52.96c1.49,7.51,4.99,14.58,9.58,20.68s10.72,11.68,17.65,15.42c3.33,1.8,6.88,3.2,10.57,4.05,3.17,.73,6.35,.93,9.59,.93s6.52-.3,9.72-1.08c3.74-.91,7.35-2.36,10.74-4.18,6.9-3.71,12.98-8.97,17.76-15.16s8.06-12.86,9.19-20.29c.55-3.64,.47-7.32-.24-10.94-.62-3.15-1.72-6.29-3.72-8.83-2.45-3.1-6.46-5.05-10.43-4.16-1.12,.25-2.41,.77-3.04,1.8-.99,1.64-1.14,3.46-1.37,5.31-.25,2.03-1.27,3.95-3.02,5.08-.64,.41-1.34,.7-2.05,.95-.39,.14-.9,.24-1.22,.52-.29,.26-.22,.56-.03,.86,.38,.61,.94,1.12,1.42,1.65,.67,.74,1.33,1.51,1.84,2.37s.73,1.88,.77,2.91c.03,.95-.08,1.9-.11,2.86-.03,.7-.02,1.45,.27,2.11,.3,.69,.87,1.06,1.56,1.32s1.31,.66,1.82,1.19c1.1,1.14,1.6,2.73,1.78,4.27,.48,4.11-.89,8.41-2.74,12.03-2.64,5.14-6.74,9.8-11.67,12.84-3.25,2-6.94,3.25-10.77,3.43s-7.74-.62-11.24-2.23c-6.56-3.03-11.62-8.67-15.03-14.93-1.59-2.92-2.86-6.02-3.7-9.24-.54-2.04-.92-4.13-1.17-6.22-.21-1.71-.32-3.45-.19-5.18,.07-.97,.22-1.96,.59-2.86,.17-.41,.42-.89,.8-1.1,.28-.15,.03-.57-.25-.42Z"/></g></g><g id="Laag_3"><path class="cls-2" d="M25,12.26c-2.69,2.02-4.91,4.62-6.8,7.39-2.33,3.4-4.17,7.14-5.56,11.02-1.57,4.36-2.56,8.93-2.94,13.54-.4,5-.05,10.06,1.09,14.95,1.26,5.41,3.5,10.57,6.51,15.24,.41,.63,.83,1.26,1.27,1.87,.18,.26,.61,.01,.42-.25-3.24-4.58-5.73-9.67-7.24-15.08-1.34-4.83-1.89-9.86-1.68-14.87,.2-4.62,1.05-9.21,2.47-13.62,1.28-3.96,3.02-7.78,5.25-11.3,1.83-2.88,3.99-5.61,6.62-7.81,.27-.23,.56-.45,.84-.67,.25-.19,0-.61-.25-.42h0Z"/></g><g id="Laag_14"><path class="cls-2" d="M78.55,35.96c.91,2.15,2.25,4.07,3.86,5.74,1.37,1.42,2.91,2.64,4.39,3.93,1.22,1.06,2.46,2.22,3.16,3.7,.77,1.61,.65,3.4,.15,5.07-.38,1.27-.96,2.48-1.6,3.64-.89,1.61-1.93,3.13-3.02,4.62-.32,.44-.66,.88-.99,1.32-.19,.25,.23,.5,.42,.25,2.08-2.72,4.17-5.61,5.37-8.85,.66-1.78,1.01-3.76,.37-5.59-.54-1.57-1.68-2.82-2.88-3.93-1.43-1.31-2.97-2.49-4.36-3.84-1.65-1.59-3.07-3.39-4.07-5.46-.14-.28-.27-.57-.39-.86s-.55-.04-.42,.25h0Z"/></g><g id="Laag_8"><path class="cls-2" d="M76.08,52.89c1.4,.83,3.69,1.04,4.65-.54,.35-.58,.46-1.28,.46-1.95,0-.32-.49-.32-.49,0,0,.92-.24,1.93-1.13,2.39-.66,.34-1.49,.29-2.19,.11-.37-.1-.72-.23-1.05-.43-.27-.16-.52,.26-.25,.42h0Z"/></g><g id="Laag_5"><path class="cls-2" d="M44.48,51.9c-.23-.63-.59-1.22-1.15-1.6-.44-.3-.98-.4-1.5-.3-.92,.18-1.8,1.08-1.48,2.07,.21,.66,.86,.95,1.51,1,.32,.03,.31-.47,0-.49-.41-.03-.85-.19-1.01-.59-.12-.29-.08-.61,.08-.86,.08-.12,.25-.29,.41-.39,.16-.11,.34-.2,.53-.25,.37-.1,.76-.04,1.09,.15,.52,.29,.85,.83,1.05,1.38,.11,.29,.58,.17,.47-.13h0Z"/></g><g id="Laag_6"><path class="cls-2" d="M77.54,41.76c.74,0,.74-1.14,0-1.14s-.74,1.14,0,1.14h0Z"/></g></svg>